<?xml version="1.0" standalone="no"?>
<!DOCTYPE svg PUBLIC "-//W3C//DTD SVG 20010904//EN"
 "http://www.w3.org/TR/2001/REC-SVG-20010904/DTD/svg10.dtd">
<svg version="1.0" xmlns="http://www.w3.org/2000/svg"
 width="2076.000000pt" height="2076.000000pt" viewBox="0 0 2076.000000 2076.000000"
 preserveAspectRatio="xMidYMid meet">
<metadata>
Created by potrace 1.14, written by Peter Selinger 2001-2017
</metadata>
<g transform="translate(0.000000,2076.000000) scale(0.100000,-0.100000)"
fill="#000000" stroke="none">
<path d="M12880 15923 c-2588 -43 -4679 -448 -6205 -1203 -1828 -904 -2879
-2320 -3155 -4247 -55 -391 -65 -551 -65 -1063 1 -499 9 -640 61 -1000 129
-902 434 -1629 936 -2225 104 -124 370 -382 503 -489 116 -93 396 -282 530
-358 763 -432 1703 -673 2930 -750 426 -26 1222 -14 1735 28 1228 99 2296 379
3178 835 1874 967 2945 2733 3217 5304 60 574 58 483 62 2697 4 1953 3 2037
-14 2042 -21 6 -303 61 -563 110 -715 135 -1406 238 -1925 285 -404 37 -639
44 -1225 34z"/>
<path d="M20657 11844 c-4 -4 -7 -87 -7 -185 0 -148 2 -178 15 -183 8 -3 22
-3 30 0 13 5 15 33 13 188 -3 174 -4 181 -23 184 -12 2 -24 0 -28 -4z"/>
<path d="M3374 3945 c-4 -8 -4 -22 0 -30 5 -13 32 -15 188 -13 l183 3 0 25 0
25 -183 3 c-156 2 -183 0 -188 -13z"/>
</g>
</svg>
